<?xml version="1.0" encoding="UTF-8" standalone="no"?>
<!-- Created with Inkscape (http://www.inkscape.org/) -->

<svg
   width="180"
   height="180"
   viewBox="0 0 180 180"
   version="1.1"
   id="svg1"
   xmlns:xlink="http://www.w3.org/1999/xlink"
   xmlns="http://www.w3.org/2000/svg"
   xmlns:svg="http://www.w3.org/2000/svg">
  <defs
     id="defs1">
    <linearGradient
       id="linearGradient22">
      <stop
         style="stop-color:#00f700;stop-opacity:0.19578314;"
         offset="0"
         id="stop24" />
      <stop
         style="stop-color:#00f700;stop-opacity:1;"
         offset="1"
         id="stop23" />
    </linearGradient>
    <linearGradient
       id="linearGradient8">
      <stop
         style="stop-color:#f70400;stop-opacity:1;"
         offset="0.19"
         id="stop9" />
      <stop
         style="stop-color:#f70400;stop-opacity:0;"
         offset="0.64285713"
         id="stop10" />
    </linearGradient>
    <linearGradient
       id="linearGradient6">
      <stop
         style="stop-color:#780f0f;stop-opacity:1;"
         offset="0"
         id="stop8" />
      <stop
         style="stop-color:#000000;stop-opacity:1;"
         offset="0.62562814"
         id="stop7" />
    </linearGradient>
    <linearGradient
       id="linearGradient1">
      <stop
         style="stop-color:#f70400;stop-opacity:1;"
         offset="0"
         id="stop1" />
      <stop
         style="stop-color:#f70400;stop-opacity:0;"
         offset="1"
         id="stop2" />
    </linearGradient>
    <radialGradient
       xlink:href="#linearGradient1"
       id="radialGradient2"
       cx="90.928978"
       cy="58.859451"
       fx="90.928978"
       fy="58.859451"
       r="90.335953"
       gradientTransform="matrix(1,0,0,0.64560717,0,20.859367)"
       gradientUnits="userSpaceOnUse" />
    <radialGradient
       xlink:href="#linearGradient6"
       id="radialGradient8"
       cx="93.157448"
       cy="61.685768"
       fx="93.157448"
       fy="61.685768"
       r="92.074226"
       gradientTransform="matrix(1,0,0,0.99047733,0,0.85193914)"
       gradientUnits="userSpaceOnUse" />
    <linearGradient
       xlink:href="#linearGradient8"
       id="linearGradient10"
       x1="111.15383"
       y1="14.565893"
       x2="111.15383"
       y2="223.68225"
       gradientUnits="userSpaceOnUse"
       spreadMethod="pad" />
    <linearGradient
       xlink:href="#linearGradient22"
       id="linearGradient24"
       x1="-177.17682"
       y1="24.980377"
       x2="-102.85721"
       y2="24.980377"
       gradientUnits="userSpaceOnUse" />
  </defs>
  <g
     id="layer5">
    <rect
       style="fill:url(#radialGradient8);stroke:none;stroke-width:10.119;stroke-linecap:butt;stroke-linejoin:round;stroke-dasharray:none;stroke-dashoffset:0;stroke-opacity:1;paint-order:stroke markers fill"
       id="rect2"
       width="184.14845"
       height="182.39487"
       x="-0.86658192"
       y="-1.7331638"
       rx="2.0898993"
       ry="2.1702819" />
  </g>
  <g
     id="layer7"
     style="display:none">
    <path
       d="m 21.192723,136.88779 v -29.39718 a 2.0428113,2.0428113 45 0 0 -2.042811,-2.04281 l -7.872403,0 a 2.0428113,2.0428113 45 0 1 -2.0428115,-2.04281 v -2.7319 a 2.0428113,2.0428113 135 0 1 2.0428115,-2.042812 h 27.940216 a 2.0428113,2.0428113 45 0 1 2.042811,2.042812 v 2.7319 a 2.0428113,2.0428113 135 0 1 -2.042811,2.04281 h -6.615248 a 2.0428113,2.0428113 135 0 0 -2.042811,2.04281 v 29.39718 a 2.0428113,2.0428113 135 0 1 -2.042811,2.04281 h -5.281321 a 2.0428113,2.0428113 45 0 1 -2.042811,-2.04281 z M 48.498954,98.630278 h 4.051415 a 2.0428113,2.0428113 45 0 1 2.042811,2.042812 l 0,17.74143 c 0,1.12821 -0.0028,2.95747 0.01365,4.08556 0.01511,1.03905 0.04275,1.92648 0.08294,2.66229 0.06145,1.12521 0.36264,2.95601 0.89954,3.94376 0.113248,0.20835 0.237369,0.40938 0.372364,0.60308 0.64258,0.92206 2.148927,2.04352 3.209364,2.41551 0.479298,0.16813 0.996531,0.29686 1.551699,0.3862 1.112694,0.17907 2.956688,0.17997 4.070842,0.009 0.498976,-0.0764 0.960631,-0.1835 1.384963,-0.32129 1.067267,-0.34659 2.565619,-1.49816 3.163675,-2.44885 0.01608,-0.0256 0.03194,-0.0512 0.04756,-0.077 0.581449,-0.9591 0.854372,-2.80801 0.932665,-3.93305 0.05519,-0.79308 0.09314,-1.7175 0.113832,-2.77326 0.02211,-1.1277 0.01863,-2.95679 0.01863,-4.085 v -18.20876 a 2.0428113,2.0428113 135 0 1 2.042811,-2.042812 h 4.051415 a 2.0428113,2.0428113 45 0 1 2.042811,2.042812 v 17.08167 c 0,1.12821 0.0022,2.95747 -0.01427,4.08555 -0.03703,2.53004 -0.146099,4.5948 -0.327213,6.19428 -0.126871,1.12045 -0.495515,2.92143 -0.906774,3.97077 -0.197547,0.50405 -0.425122,0.98319 -0.682725,1.43744 -0.555634,0.97977 -1.763424,2.37978 -2.644942,3.08111 -0.440532,0.35048 -0.917193,0.67633 -1.429983,0.97755 -0.972046,0.57098 -2.678319,1.25985 -3.774111,1.52388 -1.117424,0.26925 -2.372494,0.44673 -3.765207,0.53245 -1.125899,0.0693 -2.956825,0.0672 -4.083723,0.0148 -1.856806,-0.0862 -3.454018,-0.29585 -4.791636,-0.62884 -1.093472,-0.2722 -2.780655,-1.00836 -3.737735,-1.60422 -0.52655,-0.32782 -1.014036,-0.67995 -1.46246,-1.05638 -0.862853,-0.72432 -2.032509,-2.15172 -2.594688,-3.12855 -0.166358,-0.28907 -0.317663,-0.58058 -0.453915,-0.87454 -0.473624,-1.02185 -0.87492,-2.81933 -1.027976,-3.93674 -0.230396,-1.68203 -0.369988,-3.7398 -0.418776,-6.1733 -0.02261,-1.12793 -0.01966,-2.95721 -0.01966,-4.08542 l 0,-17.41155 a 2.0428113,2.0428113 135 0 1 2.042811,-2.042812 z m 38.752331,38.257512 v -36.2147 a 2.0428113,2.0428113 135 0 1 2.042811,-2.042812 h 3.831495 a 3.6479185,3.6479185 29.248551 0 1 3.110265,1.741732 l 14.359094,23.42924 a 0.57618816,0.57618816 164.24855 0 0 1.06745,-0.30108 v -22.82708 a 2.0428113,2.0428113 135 0 1 2.04281,-2.042812 h 3.47412 a 2.0428113,2.0428113 45 0 1 2.04281,2.042812 v 36.2147 a 2.0428113,2.0428113 135 0 1 -2.04281,2.04281 l -4.0789,0 a 3.6645161,3.6645161 29.137801 0 1 -3.11699,-1.73759 L 95.885211,114.38776 a 0.58045327,0.58045327 164.1378 0 0 -1.074179,0.30522 v 22.19481 a 2.0428113,2.0428113 135 0 1 -2.042811,2.04281 h -3.474125 a 2.0428113,2.0428113 45 0 1 -2.042811,-2.04281 z m 40.575225,0 v -36.2147 a 2.0428113,2.0428113 135 0 1 2.04281,-2.042812 h 25.796 a 2.0428113,2.0428113 45 0 1 2.04281,2.042812 l 0,2.7319 a 2.0428113,2.0428113 135 0 1 -2.04281,2.04281 h -17.65896 a 2.0428113,2.0428113 135 0 0 -2.04281,2.04281 v 4.84862 a 2.0428113,2.0428113 45 0 0 2.04281,2.04281 l 16.14701,0 a 2.0428113,2.0428113 45 0 1 2.04281,2.04281 v 2.70441 a 2.0428113,2.0428113 135 0 1 -2.04281,2.04281 h -16.14701 a 2.0428113,2.0428113 135 0 0 -2.04281,2.04281 v 6.88289 a 2.0428113,2.0428113 45 0 0 2.04281,2.04281 h 18.42868 a 2.0428113,2.0428113 45 0 1 2.04281,2.04281 v 2.7044 a 2.0428113,2.0428113 135 0 1 -2.04281,2.04281 l -26.56572,0 a 2.0428113,2.0428113 45 0 1 -2.04281,-2.04281 z m 37.30393,0 v -36.2147 a 2.0428113,2.0428113 135 0 1 2.04281,-2.042812 l 4.05141,0 a 2.0428113,2.0428113 45 0 1 2.04281,2.042812 l 0,36.2147 a 2.0428113,2.0428113 135 0 1 -2.04281,2.04281 h -4.05141 a 2.0428113,2.0428113 45 0 1 -2.04281,-2.04281 z m 15.97167,0 v -36.2147 a 2.0428113,2.0428113 135 0 1 2.04281,-2.042812 h 3.8315 a 3.6479187,3.6479187 29.248549 0 1 3.11026,1.741732 l 14.3591,23.42924 a 0.57618822,0.57618822 164.24855 0 0 1.06745,-0.30108 v -22.82708 a 2.0428113,2.0428113 135 0 1 2.04281,-2.042812 h 3.47412 a 2.0428113,2.0428113 45 0 1 2.04281,2.042812 v 36.2147 a 2.0428113,2.0428113 135 0 1 -2.04281,2.04281 h -4.0789 a 3.6645163,3.6645163 29.137799 0 1 -3.11699,-1.73759 l -14.09823,-22.80525 a 0.58045333,0.58045333 164.1378 0 0 -1.07418,0.30522 v 22.19481 a 2.0428113,2.0428113 135 0 1 -2.04281,2.04281 h -3.47413 a 2.0428113,2.0428113 45 0 1 -2.04281,-2.04281 z"
       id="text8"
       style="font-weight:bold;font-size:56.2995px;font-family:Arial;-inkscape-font-specification:'Arial Bold';letter-spacing:0px;fill:#0be0c7;stroke:url(#linearGradient10);stroke-width:5.278;stroke-linejoin:round;stroke-dasharray:none;paint-order:stroke markers fill"
       transform="scale(0.81339241,1.2294189)"
       aria-label="TUNEIN" />
  </g>
  <g
     id="layer8"
     style="display:none">
    <path
       style="fill:#00d400;fill-opacity:1;stroke:url(#linearGradient24);stroke-width:13.8922;stroke-linecap:butt;stroke-linejoin:round;stroke-dasharray:none;stroke-dashoffset:0;paint-order:stroke markers fill"
       id="path10"
       d="m -109.80278,51.146328 -60.42847,0 30.21424,-52.3325959 z"
       transform="matrix(0,0.23043289,-0.36537769,0,140.27033,187.06789)" />
  </g>
  <g
     id="layer1"
     style="display:none">
    <path
       d="M 71.852836,112.18099 H 9.593022 a 4,4 45 0 1 -4,-4 V 9.53791 a 4,4 135 0 1 4,-4 h 62.259814 a 4,4 45 0 1 4,4 V 21.143 a 4,4 135 0 1 -4,4 H 31.774 a 4,4 135 0 0 -4,4 v 12.221 a 4,4 45 0 0 4,4 h 40.078836 a 4,4 45 0 1 4,4 V 59.97 a 4,4 135 0 1 -4,4 H 31.774 a 4,4 135 0 0 -4,4 l 0,20.606 a 4,4 45 0 0 4,4 h 40.078836 a 4,4 45 0 1 4,4 v 11.60499 a 4,4 135 0 1 -4,4 z m 100.412094,0 H 97.041785 a 4,4 45 0 1 -4,-4 V 96.002518 a 10.801435,10.801435 110.32066 0 1 2.605286,-7.035207 L 147.82571,28.178207 A 1.8380475,1.8380475 65.320657 0 0 146.431,25.143 H 99.476886 a 4,4 45 0 1 -4,-4 l 0,-11.60509 a 4,4 135 0 1 4,-4 h 71.212394 a 4,4 45 0 1 4,4 V 21.358 a 10.483491,10.483491 110.88447 0 1 -2.66451,6.983349 l -54.70526,61.251302 a 1.7905678,1.7905678 65.884226 0 0 1.33549,2.983315 l 53.60993,-4.5e-4 a 3.9999664,3.9999664 44.999759 0 1 4,3.999966 v 11.605508 a 4,4 135 0 1 -4,4 z"
       id="text1"
       style="font-size:146.679px;letter-spacing:0px;fill:#2fa799;fill-opacity:1;stroke:url(#radialGradient2);stroke-width:10;stroke-linecap:butt;stroke-linejoin:round;stroke-dasharray:none;stroke-dashoffset:0;stroke-opacity:1;paint-order:stroke markers fill"
       aria-label="EZ" />
  </g>
  <g
     id="layer6"
     style="display:inline">
    <circle
       style="fill:none;fill-opacity:1;stroke:#f70400;stroke-width:7.92056;stroke-linecap:butt;stroke-linejoin:round;stroke-dasharray:none;stroke-dashoffset:0;stroke-opacity:1;paint-order:stroke markers fill"
       id="path8-4"
       cx="89.830002"
       cy="89.526817"
       r="83.802109" />
    <rect
       style="display:inline;fill:#000000;fill-opacity:1;stroke:none;stroke-width:3.10385;stroke-linecap:butt;stroke-linejoin:round;stroke-dasharray:none;stroke-dashoffset:0;stroke-opacity:1;paint-order:stroke markers fill"
       id="rect27"
       width="151.21855"
       height="37.569996"
       x="15.165186"
       y="1.0689673"
       ry="2.6552596" />
    <rect
       style="display:inline;fill:#000000;fill-opacity:1;stroke:none;stroke-width:3.10385;stroke-linecap:butt;stroke-linejoin:round;stroke-dasharray:none;stroke-dashoffset:0;stroke-opacity:1;paint-order:stroke markers fill"
       id="rect27-0"
       width="151.21855"
       height="37.569996"
       x="10.872937"
       y="142.41931"
       ry="2.6552596" />
    <ellipse
       style="display:inline;fill:#ff0000;fill-opacity:1;stroke:none;stroke-width:45.9747;stroke-linecap:butt;stroke-linejoin:round;stroke-dasharray:none;stroke-dashoffset:0;stroke-opacity:1;paint-order:stroke markers fill"
       id="path8"
       cx="89.830002"
       cy="89.526817"
       rx="69.472092"
       ry="69.472145" />
  </g>
  <g
     id="layer9"
     transform="matrix(0.88601012,0,0,0.89294675,10.080493,5.9991959)"
     style="display:inline">
    <ellipse
       style="fill:#000000;fill-opacity:1;stroke:none;stroke-width:5.15468;stroke-linecap:butt;stroke-linejoin:round;stroke-dasharray:none;stroke-dashoffset:0;stroke-opacity:1;paint-order:stroke markers fill"
       id="path24"
       cx="55.537106"
       cy="125.43577"
       rx="15.604959"
       ry="17.528858" />
    <rect
       style="fill:#000000;fill-opacity:1;stroke:none;stroke-width:5.38655;stroke-linecap:butt;stroke-linejoin:round;stroke-dasharray:none;stroke-dashoffset:0;stroke-opacity:1;paint-order:stroke markers fill"
       id="rect24"
       width="10.532125"
       height="73.177597"
       x="60.583176"
       y="53.888145"
       rx="3.2271144"
       ry="2.4510024" />
    <ellipse
       style="fill:#000000;fill-opacity:1;stroke:none;stroke-width:5.15468;stroke-linecap:butt;stroke-linejoin:round;stroke-dasharray:none;stroke-dashoffset:0;stroke-opacity:1;paint-order:stroke markers fill"
       id="path24-0"
       cx="116.3638"
       cy="108.56419"
       rx="15.604959"
       ry="17.528858" />
    <rect
       style="fill:#000000;fill-opacity:1;stroke:none;stroke-width:5.38655;stroke-linecap:butt;stroke-linejoin:round;stroke-dasharray:none;stroke-dashoffset:0;stroke-opacity:1;paint-order:stroke markers fill"
       id="rect24-9"
       width="10.532125"
       height="73.177597"
       x="121.40987"
       y="37.016582"
       rx="3.2271144"
       ry="2.4510024" />
    <rect
       style="fill:#000000;fill-opacity:1;stroke:none;stroke-width:5.08272;stroke-linecap:butt;stroke-linejoin:round;stroke-dasharray:none;stroke-dashoffset:0;stroke-opacity:1;paint-order:stroke markers fill"
       id="rect24-9-0"
       width="10.04452"
       height="68.317451"
       x="-79.120468"
       y="38.405834"
       rx="3.0777092"
       ry="2.2882171"
       transform="matrix(-0.33485223,-0.94227065,0.96356069,-0.26748981,0,0)" />
    <rect
       style="fill:#000000;fill-opacity:1;stroke:none;stroke-width:4.88334;stroke-linecap:butt;stroke-linejoin:round;stroke-dasharray:none;stroke-dashoffset:0;stroke-opacity:1;paint-order:stroke markers fill"
       id="rect24-9-0-5"
       width="9.6504927"
       height="65.637474"
       x="-94.319405"
       y="35.051441"
       rx="2.9569764"
       ry="2.1984546"
       transform="matrix(-0.33485223,-0.94227065,0.96356069,-0.26748981,0,0)" />
  </g>
  <g
     id="g31"
     transform="matrix(0.88601012,0,0,0.89294675,13.847029,9.6431823)"
     style="display:inline">
    <ellipse
       style="fill:#ffffff;fill-opacity:1;stroke:none;stroke-width:5.15468;stroke-linecap:butt;stroke-linejoin:round;stroke-dasharray:none;stroke-dashoffset:0;stroke-opacity:1;paint-order:stroke markers fill"
       id="ellipse27"
       cx="55.537106"
       cy="125.43577"
       rx="15.604959"
       ry="17.528858" />
    <rect
       style="fill:#ffffff;fill-opacity:1;stroke:none;stroke-width:5.38655;stroke-linecap:butt;stroke-linejoin:round;stroke-dasharray:none;stroke-dashoffset:0;stroke-opacity:1;paint-order:stroke markers fill"
       id="rect28"
       width="10.532125"
       height="73.177597"
       x="60.583176"
       y="53.888145"
       rx="3.2271144"
       ry="2.4510024" />
    <ellipse
       style="fill:#ffffff;fill-opacity:1;stroke:none;stroke-width:5.15468;stroke-linecap:butt;stroke-linejoin:round;stroke-dasharray:none;stroke-dashoffset:0;stroke-opacity:1;paint-order:stroke markers fill"
       id="ellipse28"
       cx="116.3638"
       cy="108.56419"
       rx="15.604959"
       ry="17.528858" />
    <rect
       style="fill:#ffffff;fill-opacity:1;stroke:none;stroke-width:5.38655;stroke-linecap:butt;stroke-linejoin:round;stroke-dasharray:none;stroke-dashoffset:0;stroke-opacity:1;paint-order:stroke markers fill"
       id="rect29"
       width="10.532125"
       height="73.177597"
       x="121.40987"
       y="37.016582"
       rx="3.2271144"
       ry="2.4510024" />
    <rect
       style="fill:#ffffff;fill-opacity:1;stroke:none;stroke-width:5.08272;stroke-linecap:butt;stroke-linejoin:round;stroke-dasharray:none;stroke-dashoffset:0;stroke-opacity:1;paint-order:stroke markers fill"
       id="rect30"
       width="10.04452"
       height="68.317451"
       x="-79.120468"
       y="38.405834"
       rx="3.0777092"
       ry="2.2882171"
       transform="matrix(-0.33485223,-0.94227065,0.96356069,-0.26748981,0,0)" />
    <rect
       style="fill:#ffffff;fill-opacity:1;stroke:none;stroke-width:4.88334;stroke-linecap:butt;stroke-linejoin:round;stroke-dasharray:none;stroke-dashoffset:0;stroke-opacity:1;paint-order:stroke markers fill"
       id="rect31"
       width="9.6504927"
       height="65.637474"
       x="-94.319405"
       y="35.051441"
       rx="2.9569764"
       ry="2.1984546"
       transform="matrix(-0.33485223,-0.94227065,0.96356069,-0.26748981,0,0)" />
  </g>
</svg>
